<?xml version="1.0" standalone="no"?>
<!DOCTYPE svg PUBLIC "-//W3C//DTD SVG 20010904//EN"
 "http://www.w3.org/TR/2001/REC-SVG-20010904/DTD/svg10.dtd">
<svg version="1.0" xmlns="http://www.w3.org/2000/svg"
 width="300.000000pt" height="300.000000pt" viewBox="0 0 300.000000 300.000000"
 preserveAspectRatio="xMidYMid meet">
<metadata>
Created by potrace 1.14, written by Peter Selinger 2001-2017
</metadata>
<g transform="translate(0.000000,300.000000) scale(0.100000,-0.100000)"
fill="#000000" stroke="none">
<path d="M1415 2572 c-3 -3 -23 -5 -44 -4 -22 2 -42 -2 -46 -8 -3 -6 -11 -7
-17 -4 -13 8 -85 -15 -120 -38 -14 -10 -35 -18 -46 -18 -12 0 -24 -4 -27 -10
-3 -5 -16 -10 -29 -10 -13 0 -31 -9 -41 -20 -10 -11 -21 -17 -26 -14 -11 6
-69 -24 -69 -36 0 -6 -7 -10 -16 -10 -21 0 -124 -67 -124 -81 0 -5 -10 -9 -22
-9 -26 -1 -58 -22 -58 -39 0 -6 -17 -19 -37 -28 -23 -11 -39 -26 -41 -39 -2
-11 -15 -25 -32 -31 -18 -7 -32 -21 -35 -36 -4 -16 -15 -27 -28 -29 -13 -2
-23 -13 -28 -29 -3 -15 -16 -36 -28 -48 -11 -11 -21 -32 -21 -45 0 -14 -4 -28
-10 -31 -5 -3 -10 -18 -10 -31 0 -14 -9 -33 -20 -42 -24 -19 -41 -75 -45 -142
-2 -25 -8 -60 -14 -78 -5 -18 -8 -39 -5 -47 3 -7 -5 -20 -17 -28 -19 -14 -20
-19 -11 -46 6 -18 7 -33 2 -36 -11 -7 -102 38 -119 59 -19 23 -54 20 -80 -8
-24 -26 -28 -47 -18 -88 7 -26 11 -28 55 -28 50 0 124 -21 155 -44 15 -12 16
-18 6 -40 -10 -20 -9 -32 1 -53 7 -16 12 -40 11 -56 -2 -17 3 -29 13 -33 11
-4 16 -19 16 -44 0 -21 5 -40 12 -42 7 -3 13 -21 15 -42 1 -25 9 -43 22 -52
11 -8 21 -27 23 -42 2 -16 12 -31 26 -37 15 -7 22 -18 22 -37 0 -15 8 -35 18
-45 10 -10 23 -31 30 -46 7 -16 21 -31 32 -34 11 -3 20 -11 20 -18 0 -8 12
-23 28 -35 15 -11 34 -33 43 -48 8 -14 26 -29 40 -33 13 -4 20 -7 15 -8 -4 -1
-1 -12 8 -25 15 -23 14 -28 -9 -74 -43 -85 -29 -130 58 -193 46 -34 110 -40
125 -13 13 24 -6 84 -40 119 -31 35 -34 47 -14 64 10 9 16 8 26 -4 7 -8 22
-15 35 -15 12 0 30 -9 40 -20 10 -11 29 -20 43 -20 14 0 34 -8 44 -17 11 -10
30 -18 43 -18 13 -1 30 -7 39 -14 8 -7 25 -13 38 -15 13 -1 33 -8 45 -14 12
-7 35 -9 52 -6 17 4 37 2 43 -4 7 -6 29 -11 48 -11 62 -1 154 -1 175 0 11 1
27 -1 36 -5 10 -4 23 -1 33 9 14 14 21 15 50 4 27 -10 38 -10 49 0 9 7 26 9
40 6 18 -5 30 -1 45 15 11 12 28 20 38 19 11 -2 30 3 44 11 14 7 39 13 55 11
21 -1 37 5 49 18 11 12 28 21 39 21 11 0 28 6 36 14 9 8 29 16 46 18 26 3 33
-3 64 -49 36 -57 47 -61 113 -42 60 16 110 75 90 105 -11 17 -62 23 -94 12
-23 -8 -33 -7 -48 7 -30 28 -25 53 15 69 23 10 35 22 35 35 0 11 8 22 18 25
10 3 26 19 35 36 10 16 23 30 29 30 14 0 37 31 38 49 0 7 11 22 25 33 14 11
25 26 25 33 0 8 11 25 25 39 14 14 25 32 25 41 0 8 5 15 10 15 6 0 10 18 10
40 0 26 8 51 21 70 12 16 19 37 17 48 -3 10 1 27 8 37 8 10 14 28 14 40 0 11
7 31 16 43 12 17 13 29 6 50 -7 21 -6 33 4 47 8 10 13 32 13 49 -2 48 21 106
41 106 5 0 21 11 36 25 15 14 39 25 55 25 52 0 81 87 41 123 -37 34 -110 10
-132 -42 -7 -17 -18 -35 -26 -42 -20 -16 -43 11 -37 43 3 14 -2 39 -11 56 -9
17 -16 40 -16 50 0 11 -9 31 -20 45 -11 14 -20 34 -20 45 0 10 -10 32 -22 47
-12 16 -23 36 -23 47 -1 10 -11 28 -21 41 -11 12 -25 34 -32 49 -6 15 -22 34
-36 43 -13 9 -27 26 -30 38 -3 12 -19 31 -36 42 -16 11 -30 25 -30 31 0 6 -12
21 -26 35 -14 13 -32 39 -39 57 -8 18 -25 36 -40 42 -14 5 -28 17 -31 25 -4 9
-20 23 -36 31 -16 8 -38 24 -48 34 -11 11 -31 22 -46 26 -14 4 -36 17 -49 30
-13 13 -33 24 -44 24 -11 0 -31 11 -45 25 -15 14 -37 25 -53 25 -15 0 -37 7
-47 15 -11 8 -37 15 -58 15 -21 0 -38 4 -38 9 0 15 -59 34 -90 28 -16 -4 -32
-3 -34 2 -6 9 -142 11 -151 3z m146 -42 c12 -33 33 -39 47 -14 15 27 47 13 50
-23 4 -41 27 -49 48 -17 23 35 60 30 56 -8 -4 -37 15 -44 43 -18 31 29 55 20
55 -20 0 -38 23 -49 50 -25 28 25 53 4 45 -37 -8 -33 21 -53 37 -25 5 10 18
17 28 17 16 0 20 -7 20 -35 0 -29 4 -35 20 -35 11 0 23 7 26 15 4 10 11 12 23
5 13 -6 16 -18 13 -44 -5 -42 22 -62 43 -33 7 10 17 17 24 17 14 0 15 -46 1
-55 -5 -3 -10 -18 -10 -32 0 -20 4 -24 18 -18 40 16 47 12 44 -29 l-4 -38 41
7 42 7 -3 -44 c-3 -41 -2 -43 24 -40 33 3 57 -30 38 -53 -15 -19 -3 -38 21
-32 26 7 43 -17 30 -42 -17 -30 -13 -41 13 -41 38 0 52 -25 32 -55 -20 -30
-14 -45 19 -45 32 0 41 -17 20 -40 -21 -23 -13 -55 11 -46 17 7 44 -9 44 -25
0 -5 -11 -14 -25 -19 -34 -13 -32 -33 5 -47 37 -14 38 -30 5 -45 -29 -13 -33
-36 -7 -45 38 -14 43 -50 7 -59 -30 -7 -33 -30 -5 -39 29 -9 25 -35 -5 -35
-31 0 -33 -22 -5 -50 25 -25 26 -50 1 -50 -25 0 -37 -18 -22 -33 21 -21 13
-47 -14 -47 -29 0 -33 -23 -10 -47 20 -19 15 -35 -14 -49 -39 -20 -43 -29 -21
-49 27 -25 25 -37 -5 -29 -21 5 -25 3 -25 -15 0 -12 5 -21 10 -21 6 0 10 -7
10 -16 0 -12 -7 -14 -29 -9 -36 8 -49 -9 -27 -34 26 -29 20 -44 -14 -38 -32 7
-49 -8 -31 -26 15 -15 14 -44 -1 -50 -7 -2 -28 -2 -47 1 -29 4 -33 3 -28 -11
4 -10 10 -24 14 -34 5 -14 1 -15 -31 -10 l-38 6 7 -39 c7 -42 -3 -52 -25 -25
-19 23 -30 18 -30 -15 0 -33 -5 -35 -45 -20 -20 8 -27 7 -31 -5 -4 -8 -1 -21
4 -28 7 -8 8 -18 1 -27 -8 -13 -12 -11 -28 8 -11 12 -27 22 -36 22 -14 0 -16
-7 -10 -39 5 -30 3 -40 -10 -45 -12 -4 -18 0 -22 14 -3 13 -14 20 -29 20 -21
0 -24 -4 -22 -32 3 -38 -26 -53 -37 -19 -3 12 -15 21 -26 21 -18 0 -23 -10
-20 -38 3 -24 -31 -26 -51 -3 -21 27 -49 22 -41 -8 3 -10 0 -28 -6 -38 -9 -16
-10 -16 -11 -1 0 10 -9 22 -19 27 -20 11 -32 3 -44 -32 -9 -24 -22 -21 -36 9
-14 31 -31 27 -49 -9 -16 -32 -28 -34 -42 -7 -14 26 -37 26 -45 -1 -8 -25 -26
-20 -40 9 -13 28 -39 28 -52 0 l-11 -23 -11 28 c-13 34 -28 35 -43 2 -13 -29
-33 -34 -25 -6 12 48 -36 62 -54 15 -13 -35 -39 -31 -39 6 0 36 -22 40 -45 8
-12 -18 -17 -20 -24 -9 -5 7 -6 22 -4 32 8 29 -24 35 -51 10 -26 -24 -37 -18
-41 23 -4 34 -5 36 -13 36 -5 0 -19 -9 -32 -20 -32 -27 -37 -25 -32 11 4 29 3
31 -19 27 -13 -3 -32 -9 -41 -13 -15 -6 -18 -2 -18 20 0 26 -2 27 -36 20 l-36
-6 6 35 c8 41 -5 53 -36 32 -34 -24 -40 -20 -33 24 6 35 4 40 -12 40 -11 0
-25 -6 -31 -12 -18 -18 -32 8 -25 44 5 27 4 28 -28 26 -33 -3 -34 -2 -31 30 3
33 3 34 -27 27 -24 -5 -32 -3 -37 10 -4 9 -2 21 5 28 20 20 12 37 -19 37 -31
0 -37 13 -20 40 12 20 -6 39 -30 33 -25 -7 -38 23 -21 49 16 25 6 38 -30 38
-34 0 -34 1 -14 41 18 33 13 49 -16 49 -24 0 -24 12 1 35 31 28 25 45 -15 45
-39 0 -45 13 -15 32 11 7 20 21 20 31 0 14 -6 18 -27 15 -40 -5 -39 19 1 43
40 23 39 41 -5 60 -37 15 -37 50 1 59 32 7 32 27 1 43 -38 19 -36 35 3 43 41
7 46 25 13 47 -18 12 -20 18 -11 34 6 10 17 18 25 19 34 2 39 5 39 18 0 7 -11
21 -25 30 -34 23 -33 52 2 51 18 0 29 6 31 18 2 10 -3 17 -12 17 -8 0 -18 10
-21 21 -8 24 8 39 43 39 28 0 41 29 19 42 -24 13 -21 30 5 26 29 -4 37 28 12
46 -23 17 -10 40 16 26 10 -5 23 -10 29 -10 16 0 13 31 -5 51 -22 24 -9 40 25
33 33 -7 49 10 30 32 -17 20 5 44 23 26 17 -17 48 -15 48 3 0 8 -5 24 -12 35
-16 26 -4 35 45 35 l42 0 -3 38 c-3 41 3 45 29 21 24 -22 49 -11 49 21 0 14 5
25 10 25 6 0 10 -5 10 -11 0 -6 10 -9 23 -7 18 2 21 8 19 36 -2 23 1 32 12 32
8 0 18 -4 21 -10 10 -17 35 -11 35 8 0 10 6 27 14 37 14 19 15 19 33 2 29 -25
41 -21 45 15 4 42 21 45 35 7 15 -39 38 -33 38 9 0 38 8 47 25 27 19 -23 40
-18 40 10 0 29 8 32 25 8 17 -23 45 -10 45 22 0 30 15 33 30 5 15 -28 37 -25
47 7 l10 28 12 -23 c13 -24 41 -30 41 -9 0 7 6 22 14 32 14 19 15 19 27 -8 13
-28 49 -38 49 -13 0 14 26 46 36 46 3 0 10 -13 15 -30z m1207 -912 c3 -22 -3
-30 -30 -44 -18 -9 -35 -20 -38 -23 -7 -9 -67 -51 -73 -51 -15 0 4 33 36 64
20 19 37 41 37 48 0 44 63 49 68 6z m-2544 -93 c11 -14 41 -38 68 -53 26 -15
48 -31 48 -35 0 -5 -6 -5 -12 0 -27 17 -85 33 -121 33 -42 0 -53 15 -43 55 8
32 36 32 60 0z m601 -965 c3 -5 1 -28 -6 -49 -12 -40 -12 -41 30 -82 33 -33
39 -45 30 -55 -10 -12 -19 -10 -58 13 -61 35 -71 49 -60 87 22 75 48 111 64
86z m1355 -15 c13 -14 19 -25 14 -25 -5 0 4 -7 20 -15 20 -11 33 -12 40 -5 12
12 46 13 46 2 0 -15 -34 -39 -63 -44 -25 -5 -33 1 -68 48 -21 29 -39 56 -39
59 0 14 29 2 50 -20z"/>
<path d="M1855 2125 c-29 -28 -33 -77 -11 -129 16 -38 45 -52 75 -36 49 26 57
118 16 163 -32 33 -49 34 -80 2z m75 -39 c16 -20 9 -60 -12 -64 -15 -3 -18 4
-18 37 0 43 9 51 30 27z"/>
<path d="M935 2087 c-8 -13 -18 -37 -21 -54 -6 -29 -34 -56 -34 -33 0 6 5 10
10 10 6 0 10 6 10 12 0 19 -38 -24 -42 -47 -2 -16 3 -19 31 -18 21 0 43 -7 55
-19 16 -15 30 -18 56 -14 45 7 60 29 60 86 0 36 -6 53 -25 74 -31 34 -78 35
-100 3z m97 -45 c7 -25 -10 -64 -24 -60 -15 5 -22 42 -14 64 8 20 33 17 38 -4z
m-125 -68 c-3 -3 -12 -4 -19 -1 -8 3 -5 6 6 6 11 1 17 -2 13 -5z"/>
<path d="M1511 1988 c-5 -13 -18 -31 -29 -41 -26 -23 -55 -16 -98 25 l-31 29
-28 -24 c-32 -27 -27 -47 11 -47 13 0 24 -4 24 -8 0 -15 49 -32 91 -32 33 0
47 6 71 33 18 19 38 31 49 29 27 -5 36 26 13 43 -29 22 -63 18 -73 -7z"/>
<path d="M533 1766 c4 -10 7 -26 7 -37 0 -10 5 -19 11 -19 15 0 6 63 -10 68
-10 3 -12 0 -8 -12z"/>
<path d="M620 1716 c0 -9 5 -16 10 -16 6 0 10 4 10 9 0 6 -4 13 -10 16 -5 3
-10 -1 -10 -9z"/>
<path d="M546 1640 c1 -34 14 -55 14 -22 0 11 5 22 12 24 14 5 2 28 -15 28 -7
0 -12 -13 -11 -30z"/>
<path d="M733 1643 c-7 -3 -13 -18 -13 -33 0 -16 -4 -31 -9 -34 -6 -4 -5 -20
1 -42 5 -20 7 -43 4 -51 -4 -11 -2 -13 9 -9 21 8 19 -8 -5 -29 -11 -10 -20
-25 -20 -34 0 -9 -7 -3 -16 14 -8 16 -13 37 -11 47 4 12 -1 18 -13 18 -16 0
-18 8 -16 65 2 35 -1 70 -5 77 -6 8 -9 -3 -9 -29 0 -24 -4 -43 -10 -43 -5 0
-10 4 -10 9 0 4 -13 8 -28 7 -23 -1 -28 -6 -29 -26 -1 -14 1 -19 4 -12 2 6 12
12 21 12 12 0 13 -3 5 -11 -7 -7 -9 -26 -6 -47 5 -30 4 -34 -10 -29 -18 7 -24
-8 -8 -17 21 -13 41 7 41 40 0 19 4 34 10 34 9 0 5 -94 -5 -111 -3 -4 -1 -10
5 -14 6 -4 8 -11 4 -16 -3 -5 -1 -16 5 -23 6 -7 8 -21 5 -31 -6 -15 -3 -17 18
-13 20 4 25 1 20 -10 -3 -10 -1 -13 6 -8 15 9 16 36 1 36 -5 0 -7 4 -4 10 3 5
16 8 28 6 12 -3 30 -5 40 -5 9 -1 17 -6 17 -12 0 -5 -5 -7 -11 -3 -7 4 -10 1
-7 -6 2 -8 10 -16 18 -18 7 -3 10 0 6 7 -4 6 -2 11 5 11 7 0 9 3 6 6 -3 4 3
18 13 32 30 37 25 83 -9 94 -8 2 -15 12 -17 21 -2 13 2 15 16 7 14 -8 19 -6
22 6 2 10 15 18 32 20 15 2 30 5 32 7 8 8 -7 33 -27 45 -17 11 -25 11 -45 -3
-13 -8 -24 -22 -24 -30 0 -8 -5 -15 -11 -15 -13 0 -2 53 12 58 13 5 11 46 -3
64 -7 9 -19 14 -25 11z m-63 -235 c0 -5 -4 -8 -10 -8 -5 0 -10 10 -10 23 0 18
2 19 10 7 5 -8 10 -18 10 -22z m90 -7 c0 -6 -4 -13 -10 -16 -5 -3 -10 1 -10 9
0 9 5 16 10 16 6 0 10 -4 10 -9z"/>
<path d="M525 1520 c-3 -5 1 -10 10 -10 9 0 13 5 10 10 -3 6 -8 10 -10 10 -2
0 -7 -4 -10 -10z"/>
<path d="M2205 1495 c-3 -8 -7 -21 -9 -27 -2 -7 0 -23 5 -35 16 -42 79 -8 79
43 0 33 -66 50 -75 19z"/>
<path d="M1488 1456 c-10 -7 -18 -26 -18 -42 0 -38 29 -58 65 -44 35 13 35 61
0 84 -29 19 -26 19 -47 2z m40 -38 c-6 -18 -28 -21 -28 -4 0 9 7 16 16 16 9 0
14 -5 12 -12z"/>
<path d="M565 1379 c-4 -6 -5 -13 -2 -16 7 -7 27 6 27 18 0 12 -17 12 -25 -2z"/>
<path d="M730 1286 c0 -2 7 -6 15 -10 8 -3 15 -1 15 4 0 6 -7 10 -15 10 -8 0
-15 -2 -15 -4z"/>
<path d="M1151 1016 c-10 -12 -8 -13 8 -9 12 3 18 9 15 14 -7 12 -10 11 -23
-5z"/>
<path d="M1160 982 c0 -7 -9 -12 -20 -12 -23 0 -43 -32 -38 -63 3 -24 46 -44
72 -34 21 8 21 74 1 101 -8 11 -15 14 -15 8z m0 -68 c0 -8 -4 -12 -10 -9 -5 3
-10 10 -10 16 0 5 5 9 10 9 6 0 10 -7 10 -16z"/>
<path d="M1908 978 c-23 -8 -28 -16 -28 -42 0 -38 15 -56 47 -56 37 0 59 70
31 98 -14 14 -14 14 -50 0z"/>
<path d="M761 964 c0 -11 3 -14 6 -6 3 7 2 16 -1 19 -3 4 -6 -2 -5 -13z"/>
<path d="M826 895 c-3 -8 -1 -15 4 -15 6 0 10 7 10 15 0 8 -2 15 -4 15 -2 0
-6 -7 -10 -15z"/>
<path d="M970 719 c0 -5 5 -7 10 -4 6 3 10 8 10 11 0 2 -4 4 -10 4 -5 0 -10
-5 -10 -11z"/>
<path d="M1137 617 c-2 -6 1 -18 8 -24 10 -10 14 -9 19 3 3 9 6 20 6 25 0 14
-27 11 -33 -4z"/>
</g>
</svg>
